<mxfile host="Electron" modified="2023-11-19T06:32:08.246Z" agent="Mozilla/5.0 (Windows NT 10.0; Win64; x64) AppleWebKit/537.36 (KHTML, like Gecko) draw.io/22.1.2 Chrome/114.0.5735.289 Electron/25.9.4 Safari/537.36" etag="plZnRMURNt9Tm2kLzgtU" version="22.1.2" type="device">
  <diagram name="Page-1" id="_L-ZeyVzCuOcRnqqC0w4">
    <mxGraphModel dx="2100" dy="1276" grid="1" gridSize="10" guides="1" tooltips="1" connect="1" arrows="1" fold="1" page="1" pageScale="1" pageWidth="1169" pageHeight="827" math="0" shadow="0">
      <root>
        <mxCell id="0" />
        <mxCell id="1" parent="0" />
        <mxCell id="eATO2dUlyzCkGafviGnd-6" value="" style="edgeStyle=orthogonalEdgeStyle;rounded=0;orthogonalLoop=1;jettySize=auto;html=1;" parent="1" source="eATO2dUlyzCkGafviGnd-1" target="eATO2dUlyzCkGafviGnd-5" edge="1">
          <mxGeometry relative="1" as="geometry" />
        </mxCell>
        <mxCell id="eATO2dUlyzCkGafviGnd-1" value="Buy a Car" style="rounded=0;whiteSpace=wrap;html=1;fontSize=18;" parent="1" vertex="1">
          <mxGeometry x="40" y="383" width="120" height="61" as="geometry" />
        </mxCell>
        <UserObject label="" id="eATO2dUlyzCkGafviGnd-8">
          <mxCell style="edgeStyle=orthogonalEdgeStyle;rounded=0;orthogonalLoop=1;jettySize=auto;html=1;jumpStyle=none;sourcePerimeterSpacing=0;startSize=6;" parent="1" source="eATO2dUlyzCkGafviGnd-5" target="eATO2dUlyzCkGafviGnd-7" edge="1">
            <mxGeometry relative="1" as="geometry" />
          </mxCell>
        </UserObject>
        <mxCell id="eATO2dUlyzCkGafviGnd-13" style="edgeStyle=orthogonalEdgeStyle;rounded=0;orthogonalLoop=1;jettySize=auto;html=1;entryX=0;entryY=0.5;entryDx=0;entryDy=0;" parent="1" source="eATO2dUlyzCkGafviGnd-5" target="eATO2dUlyzCkGafviGnd-15" edge="1">
          <mxGeometry relative="1" as="geometry">
            <mxPoint x="440" y="483" as="targetPoint" />
          </mxGeometry>
        </mxCell>
        <mxCell id="eATO2dUlyzCkGafviGnd-5" value="Budget" style="whiteSpace=wrap;html=1;fontSize=18;rounded=0;" parent="1" vertex="1">
          <mxGeometry x="200" y="383" width="120" height="61" as="geometry" />
        </mxCell>
        <mxCell id="eATO2dUlyzCkGafviGnd-18" value="" style="edgeStyle=orthogonalEdgeStyle;rounded=0;orthogonalLoop=1;jettySize=auto;html=1;entryX=0;entryY=0.5;entryDx=0;entryDy=0;" parent="1" source="eATO2dUlyzCkGafviGnd-7" target="eATO2dUlyzCkGafviGnd-17" edge="1">
          <mxGeometry relative="1" as="geometry" />
        </mxCell>
        <mxCell id="eATO2dUlyzCkGafviGnd-7" value="Low" style="whiteSpace=wrap;html=1;fontSize=18;rounded=0;" parent="1" vertex="1">
          <mxGeometry x="400" y="333" width="120" height="61" as="geometry" />
        </mxCell>
        <mxCell id="eATO2dUlyzCkGafviGnd-20" value="" style="edgeStyle=orthogonalEdgeStyle;rounded=0;orthogonalLoop=1;jettySize=auto;html=1;entryX=0;entryY=0.5;entryDx=0;entryDy=0;" parent="1" source="eATO2dUlyzCkGafviGnd-15" target="eATO2dUlyzCkGafviGnd-19" edge="1">
          <mxGeometry relative="1" as="geometry" />
        </mxCell>
        <mxCell id="eATO2dUlyzCkGafviGnd-15" value="High" style="rounded=0;whiteSpace=wrap;html=1;fontSize=19;" parent="1" vertex="1">
          <mxGeometry x="400" y="433" width="120" height="61" as="geometry" />
        </mxCell>
        <mxCell id="eATO2dUlyzCkGafviGnd-23" value="" style="edgeStyle=orthogonalEdgeStyle;rounded=0;orthogonalLoop=1;jettySize=auto;html=1;" parent="1" source="eATO2dUlyzCkGafviGnd-17" target="eATO2dUlyzCkGafviGnd-22" edge="1">
          <mxGeometry relative="1" as="geometry" />
        </mxCell>
        <mxCell id="eATO2dUlyzCkGafviGnd-24" value="" style="edgeStyle=orthogonalEdgeStyle;rounded=0;orthogonalLoop=1;jettySize=auto;html=1;" parent="1" source="eATO2dUlyzCkGafviGnd-17" target="eATO2dUlyzCkGafviGnd-22" edge="1">
          <mxGeometry relative="1" as="geometry" />
        </mxCell>
        <mxCell id="eATO2dUlyzCkGafviGnd-25" style="edgeStyle=orthogonalEdgeStyle;rounded=0;orthogonalLoop=1;jettySize=auto;html=1;" parent="1" source="eATO2dUlyzCkGafviGnd-17" target="eATO2dUlyzCkGafviGnd-26" edge="1">
          <mxGeometry relative="1" as="geometry">
            <mxPoint x="760" y="340" as="targetPoint" />
          </mxGeometry>
        </mxCell>
        <mxCell id="eATO2dUlyzCkGafviGnd-17" value="Type of Car&amp;nbsp;" style="whiteSpace=wrap;html=1;fontSize=18;rounded=0;" parent="1" vertex="1">
          <mxGeometry x="600" y="220" width="120" height="60" as="geometry" />
        </mxCell>
        <mxCell id="eATO2dUlyzCkGafviGnd-28" value="" style="edgeStyle=orthogonalEdgeStyle;rounded=0;orthogonalLoop=1;jettySize=auto;html=1;" parent="1" source="eATO2dUlyzCkGafviGnd-19" target="eATO2dUlyzCkGafviGnd-27" edge="1">
          <mxGeometry relative="1" as="geometry" />
        </mxCell>
        <mxCell id="eATO2dUlyzCkGafviGnd-32" style="edgeStyle=orthogonalEdgeStyle;rounded=0;orthogonalLoop=1;jettySize=auto;html=1;entryX=0;entryY=0.5;entryDx=0;entryDy=0;" parent="1" source="eATO2dUlyzCkGafviGnd-19" target="eATO2dUlyzCkGafviGnd-33" edge="1">
          <mxGeometry relative="1" as="geometry">
            <mxPoint x="760" y="662" as="targetPoint" />
          </mxGeometry>
        </mxCell>
        <mxCell id="eATO2dUlyzCkGafviGnd-19" value="Type of Car" style="whiteSpace=wrap;html=1;fontSize=19;rounded=0;" parent="1" vertex="1">
          <mxGeometry x="600" y="535" width="120" height="60" as="geometry" />
        </mxCell>
        <mxCell id="eATO2dUlyzCkGafviGnd-35" value="" style="edgeStyle=orthogonalEdgeStyle;rounded=0;orthogonalLoop=1;jettySize=auto;html=1;" parent="1" source="eATO2dUlyzCkGafviGnd-22" target="eATO2dUlyzCkGafviGnd-34" edge="1">
          <mxGeometry relative="1" as="geometry" />
        </mxCell>
        <mxCell id="eATO2dUlyzCkGafviGnd-22" value="SUV" style="whiteSpace=wrap;html=1;fontSize=18;rounded=0;" parent="1" vertex="1">
          <mxGeometry x="800" y="160" width="120" height="60" as="geometry" />
        </mxCell>
        <mxCell id="eATO2dUlyzCkGafviGnd-48" value="" style="edgeStyle=orthogonalEdgeStyle;rounded=0;orthogonalLoop=1;jettySize=auto;html=1;" parent="1" source="eATO2dUlyzCkGafviGnd-26" target="eATO2dUlyzCkGafviGnd-47" edge="1">
          <mxGeometry relative="1" as="geometry" />
        </mxCell>
        <mxCell id="eATO2dUlyzCkGafviGnd-26" value="Sedan" style="rounded=0;whiteSpace=wrap;html=1;fontSize=19;" parent="1" vertex="1">
          <mxGeometry x="800" y="280" width="120" height="60" as="geometry" />
        </mxCell>
        <mxCell id="eATO2dUlyzCkGafviGnd-31" value="" style="edgeStyle=orthogonalEdgeStyle;rounded=0;orthogonalLoop=1;jettySize=auto;html=1;" parent="1" source="eATO2dUlyzCkGafviGnd-19" target="eATO2dUlyzCkGafviGnd-27" edge="1">
          <mxGeometry relative="1" as="geometry">
            <mxPoint x="860" y="602" as="targetPoint" />
            <mxPoint x="720" y="512" as="sourcePoint" />
          </mxGeometry>
        </mxCell>
        <mxCell id="eATO2dUlyzCkGafviGnd-58" value="" style="edgeStyle=orthogonalEdgeStyle;rounded=0;orthogonalLoop=1;jettySize=auto;html=1;" parent="1" source="eATO2dUlyzCkGafviGnd-27" target="eATO2dUlyzCkGafviGnd-57" edge="1">
          <mxGeometry relative="1" as="geometry" />
        </mxCell>
        <mxCell id="eATO2dUlyzCkGafviGnd-27" value="SUV" style="whiteSpace=wrap;html=1;fontSize=19;rounded=0;" parent="1" vertex="1">
          <mxGeometry x="800" y="482" width="120" height="60" as="geometry" />
        </mxCell>
        <mxCell id="eATO2dUlyzCkGafviGnd-71" value="" style="edgeStyle=orthogonalEdgeStyle;rounded=0;orthogonalLoop=1;jettySize=auto;html=1;" parent="1" source="eATO2dUlyzCkGafviGnd-33" target="eATO2dUlyzCkGafviGnd-70" edge="1">
          <mxGeometry relative="1" as="geometry" />
        </mxCell>
        <mxCell id="eATO2dUlyzCkGafviGnd-33" value="Truck" style="rounded=0;whiteSpace=wrap;html=1;fontSize=19;" parent="1" vertex="1">
          <mxGeometry x="800" y="662" width="120" height="60" as="geometry" />
        </mxCell>
        <mxCell id="eATO2dUlyzCkGafviGnd-39" value="" style="edgeStyle=orthogonalEdgeStyle;rounded=0;orthogonalLoop=1;jettySize=auto;html=1;entryX=0;entryY=0.5;entryDx=0;entryDy=0;" parent="1" source="eATO2dUlyzCkGafviGnd-34" target="eATO2dUlyzCkGafviGnd-40" edge="1">
          <mxGeometry relative="1" as="geometry">
            <mxPoint x="1120" y="80" as="targetPoint" />
          </mxGeometry>
        </mxCell>
        <mxCell id="eATO2dUlyzCkGafviGnd-72" value="High" style="edgeLabel;html=1;align=center;verticalAlign=middle;resizable=0;points=[];fontSize=16;" parent="eATO2dUlyzCkGafviGnd-39" vertex="1" connectable="0">
          <mxGeometry x="0.0505" relative="1" as="geometry">
            <mxPoint as="offset" />
          </mxGeometry>
        </mxCell>
        <mxCell id="eATO2dUlyzCkGafviGnd-43" style="edgeStyle=orthogonalEdgeStyle;rounded=0;orthogonalLoop=1;jettySize=auto;html=1;entryX=0;entryY=0.5;entryDx=0;entryDy=0;" parent="1" source="eATO2dUlyzCkGafviGnd-34" target="eATO2dUlyzCkGafviGnd-45" edge="1">
          <mxGeometry relative="1" as="geometry">
            <mxPoint x="1119.9999999999998" y="180" as="targetPoint" />
          </mxGeometry>
        </mxCell>
        <mxCell id="eATO2dUlyzCkGafviGnd-73" value="Low" style="edgeLabel;html=1;align=center;verticalAlign=middle;resizable=0;points=[];fontSize=16;" parent="eATO2dUlyzCkGafviGnd-43" vertex="1" connectable="0">
          <mxGeometry x="-0.0234" relative="1" as="geometry">
            <mxPoint as="offset" />
          </mxGeometry>
        </mxCell>
        <mxCell id="eATO2dUlyzCkGafviGnd-34" value="Fuel Efficiency?" style="whiteSpace=wrap;html=1;fontSize=18;rounded=0;" parent="1" vertex="1">
          <mxGeometry x="960" y="100" width="120" height="60" as="geometry" />
        </mxCell>
        <mxCell id="eATO2dUlyzCkGafviGnd-40" value="Buy" style="whiteSpace=wrap;html=1;fontSize=18;rounded=0;" parent="1" vertex="1">
          <mxGeometry x="1190" y="50" width="120" height="60" as="geometry" />
        </mxCell>
        <mxCell id="eATO2dUlyzCkGafviGnd-45" value="Don&#39;t Buy" style="whiteSpace=wrap;html=1;fontSize=19;rounded=0;" parent="1" vertex="1">
          <mxGeometry x="1190" y="150" width="120" height="60" as="geometry" />
        </mxCell>
        <mxCell id="eATO2dUlyzCkGafviGnd-51" value="" style="edgeStyle=orthogonalEdgeStyle;rounded=0;orthogonalLoop=1;jettySize=auto;html=1;" parent="1" source="eATO2dUlyzCkGafviGnd-47" target="eATO2dUlyzCkGafviGnd-50" edge="1">
          <mxGeometry relative="1" as="geometry" />
        </mxCell>
        <mxCell id="eATO2dUlyzCkGafviGnd-55" value="Yes" style="edgeLabel;html=1;align=center;verticalAlign=middle;resizable=0;points=[];fontSize=16;" parent="eATO2dUlyzCkGafviGnd-51" vertex="1" connectable="0">
          <mxGeometry x="0.0069" relative="1" as="geometry">
            <mxPoint as="offset" />
          </mxGeometry>
        </mxCell>
        <mxCell id="eATO2dUlyzCkGafviGnd-52" style="edgeStyle=orthogonalEdgeStyle;rounded=0;orthogonalLoop=1;jettySize=auto;html=1;" parent="1" source="eATO2dUlyzCkGafviGnd-47" target="eATO2dUlyzCkGafviGnd-53" edge="1">
          <mxGeometry relative="1" as="geometry">
            <mxPoint x="1100" y="350" as="targetPoint" />
          </mxGeometry>
        </mxCell>
        <mxCell id="eATO2dUlyzCkGafviGnd-56" value="No" style="edgeLabel;html=1;align=center;verticalAlign=middle;resizable=0;points=[];fontSize=16;" parent="eATO2dUlyzCkGafviGnd-52" vertex="1" connectable="0">
          <mxGeometry x="0.0458" y="-2" relative="1" as="geometry">
            <mxPoint y="6" as="offset" />
          </mxGeometry>
        </mxCell>
        <mxCell id="eATO2dUlyzCkGafviGnd-47" value="Prefered Brand" style="whiteSpace=wrap;html=1;fontSize=19;rounded=0;" parent="1" vertex="1">
          <mxGeometry x="960" y="280" width="120" height="60" as="geometry" />
        </mxCell>
        <mxCell id="eATO2dUlyzCkGafviGnd-50" value="Buy" style="whiteSpace=wrap;html=1;fontSize=19;rounded=0;" parent="1" vertex="1">
          <mxGeometry x="1190" y="240" width="120" height="60" as="geometry" />
        </mxCell>
        <mxCell id="eATO2dUlyzCkGafviGnd-53" value="Don&#39;t Buy" style="rounded=0;whiteSpace=wrap;html=1;" parent="1" vertex="1">
          <mxGeometry x="1190" y="340" width="120" height="60" as="geometry" />
        </mxCell>
        <mxCell id="eATO2dUlyzCkGafviGnd-57" value="Great Features?" style="whiteSpace=wrap;html=1;fontSize=19;rounded=0;" parent="1" vertex="1">
          <mxGeometry x="960" y="481" width="120" height="60" as="geometry" />
        </mxCell>
        <mxCell id="eATO2dUlyzCkGafviGnd-63" value="" style="edgeStyle=orthogonalEdgeStyle;rounded=0;orthogonalLoop=1;jettySize=auto;html=1;entryX=0;entryY=0.5;entryDx=0;entryDy=0;exitX=1;exitY=0.5;exitDx=0;exitDy=0;" parent="1" source="eATO2dUlyzCkGafviGnd-57" target="eATO2dUlyzCkGafviGnd-67" edge="1">
          <mxGeometry relative="1" as="geometry">
            <mxPoint x="1120" y="511" as="sourcePoint" />
            <Array as="points">
              <mxPoint x="1140" y="511" />
              <mxPoint x="1140" y="471" />
            </Array>
          </mxGeometry>
        </mxCell>
        <mxCell id="eATO2dUlyzCkGafviGnd-64" value="Yes" style="edgeLabel;html=1;align=center;verticalAlign=middle;resizable=0;points=[];fontSize=16;" parent="eATO2dUlyzCkGafviGnd-63" vertex="1" connectable="0">
          <mxGeometry x="0.0069" relative="1" as="geometry">
            <mxPoint as="offset" />
          </mxGeometry>
        </mxCell>
        <mxCell id="eATO2dUlyzCkGafviGnd-65" style="edgeStyle=orthogonalEdgeStyle;rounded=0;orthogonalLoop=1;jettySize=auto;html=1;entryX=0;entryY=0.5;entryDx=0;entryDy=0;exitX=1;exitY=0.5;exitDx=0;exitDy=0;" parent="1" source="eATO2dUlyzCkGafviGnd-57" target="eATO2dUlyzCkGafviGnd-68" edge="1">
          <mxGeometry relative="1" as="geometry">
            <mxPoint x="1140" y="551" as="targetPoint" />
            <mxPoint x="1120" y="511" as="sourcePoint" />
          </mxGeometry>
        </mxCell>
        <mxCell id="eATO2dUlyzCkGafviGnd-66" value="No" style="edgeLabel;html=1;align=center;verticalAlign=middle;resizable=0;points=[];fontSize=16;" parent="eATO2dUlyzCkGafviGnd-65" vertex="1" connectable="0">
          <mxGeometry x="0.0458" y="-2" relative="1" as="geometry">
            <mxPoint y="6" as="offset" />
          </mxGeometry>
        </mxCell>
        <mxCell id="eATO2dUlyzCkGafviGnd-67" value="Buy" style="whiteSpace=wrap;html=1;fontSize=19;rounded=0;" parent="1" vertex="1">
          <mxGeometry x="1200" y="441" width="120" height="60" as="geometry" />
        </mxCell>
        <mxCell id="eATO2dUlyzCkGafviGnd-68" value="Don&#39;t Buy" style="rounded=0;whiteSpace=wrap;html=1;" parent="1" vertex="1">
          <mxGeometry x="1200" y="534" width="120" height="60" as="geometry" />
        </mxCell>
        <mxCell id="eATO2dUlyzCkGafviGnd-70" value=" Towing Capacity" style="whiteSpace=wrap;html=1;fontSize=19;rounded=0;" parent="1" vertex="1">
          <mxGeometry x="960" y="662" width="120" height="60" as="geometry" />
        </mxCell>
        <mxCell id="eATO2dUlyzCkGafviGnd-79" value="" style="edgeStyle=orthogonalEdgeStyle;rounded=0;orthogonalLoop=1;jettySize=auto;html=1;entryX=0;entryY=0.5;entryDx=0;entryDy=0;exitX=0.998;exitY=0.465;exitDx=0;exitDy=0;exitPerimeter=0;" parent="1" source="eATO2dUlyzCkGafviGnd-70" target="eATO2dUlyzCkGafviGnd-83" edge="1">
          <mxGeometry relative="1" as="geometry">
            <mxPoint x="1080" y="690" as="sourcePoint" />
            <Array as="points">
              <mxPoint x="1140" y="690" />
              <mxPoint x="1140" y="650" />
            </Array>
          </mxGeometry>
        </mxCell>
        <mxCell id="eATO2dUlyzCkGafviGnd-80" value="High" style="edgeLabel;html=1;align=center;verticalAlign=middle;resizable=0;points=[];fontSize=16;" parent="eATO2dUlyzCkGafviGnd-79" vertex="1" connectable="0">
          <mxGeometry x="0.0069" relative="1" as="geometry">
            <mxPoint as="offset" />
          </mxGeometry>
        </mxCell>
        <mxCell id="eATO2dUlyzCkGafviGnd-81" style="edgeStyle=orthogonalEdgeStyle;rounded=0;orthogonalLoop=1;jettySize=auto;html=1;entryX=0;entryY=0.5;entryDx=0;entryDy=0;exitX=0.999;exitY=0.466;exitDx=0;exitDy=0;exitPerimeter=0;" parent="1" source="eATO2dUlyzCkGafviGnd-70" target="eATO2dUlyzCkGafviGnd-84" edge="1">
          <mxGeometry relative="1" as="geometry">
            <mxPoint x="1140" y="730" as="targetPoint" />
            <mxPoint x="1080" y="690" as="sourcePoint" />
          </mxGeometry>
        </mxCell>
        <mxCell id="eATO2dUlyzCkGafviGnd-82" value="Low" style="edgeLabel;html=1;align=center;verticalAlign=middle;resizable=0;points=[];fontSize=16;" parent="eATO2dUlyzCkGafviGnd-81" vertex="1" connectable="0">
          <mxGeometry x="0.0458" y="-2" relative="1" as="geometry">
            <mxPoint y="6" as="offset" />
          </mxGeometry>
        </mxCell>
        <mxCell id="eATO2dUlyzCkGafviGnd-83" value="Buy" style="whiteSpace=wrap;html=1;fontSize=19;rounded=0;" parent="1" vertex="1">
          <mxGeometry x="1200" y="620" width="120" height="60" as="geometry" />
        </mxCell>
        <mxCell id="eATO2dUlyzCkGafviGnd-84" value="Don&#39;t Buy" style="rounded=0;whiteSpace=wrap;html=1;" parent="1" vertex="1">
          <mxGeometry x="1200" y="713" width="120" height="60" as="geometry" />
        </mxCell>
      </root>
    </mxGraphModel>
  </diagram>
</mxfile>
